<svg id="_0228_city_buildings_1" xmlns="http://www.w3.org/2000/svg" viewBox="0 0 500 500" data-imageid="city-1-99" imageName="City 1" class="illustrations_image" style="width: 151px;"><defs><style>.cls-1_city-1-99{fill:#fff;}.cls-2_city-1-99{opacity:.35;}.cls-2_city-1-99,.cls-3_city-1-99,.cls-4_city-1-99,.cls-5_city-1-99,.cls-6_city-1-99,.cls-7_city-1-99,.cls-8_city-1-99,.cls-9_city-1-99,.cls-10_city-1-99,.cls-11_city-1-99{fill:none;}.cls-3_city-1-99{opacity:.18;}.cls-4_city-1-99{opacity:.67;}.cls-12_city-1-99{fill:#e6e6e6;}.cls-5_city-1-99{opacity:.48;}.cls-6_city-1-99{opacity:.09;}.cls-7_city-1-99{opacity:.64;}.cls-13_city-1-99{fill:#24285b;}.cls-14_city-1-99{fill:#000001;}.cls-8_city-1-99{opacity:.25;}.cls-9_city-1-99{opacity:.53;}.cls-10_city-1-99{opacity:.33;}.cls-11_city-1-99{opacity:.15;}.cls-15_city-1-99{fill:#ffd200;}.cls-16_city-1-99{fill:#68e1fd;}</style></defs><g id="sun_city-1-99"><circle class="cls-15_city-1-99" cx="251.75" cy="101.55" r="30.07"/><g class="cls-11_city-1-99"><circle class="cls-15_city-1-99" cx="251.75" cy="101.55" r="47"/></g></g><g id="bg_city-1-99"><g class="cls-7_city-1-99"><path class="cls-12_city-1-99" d="m451.63,248.49c-.92,0-1.8.17-2.62.46.4-1.26.62-2.6.62-4,0-7.31-5.92-13.23-13.23-13.23s-13.23,5.92-13.23,13.23c0,.35.03.7.05,1.04-1.3-.66-2.77-1.04-4.33-1.04-5.29,0-9.58,4.29-9.58,9.58s4.29,9.58,9.58,9.58h32.73c4.31,0,7.81-3.5,7.81-7.81s-3.5-7.81-7.81-7.81Z"/></g><g class="cls-5_city-1-99"><path class="cls-1_city-1-99" d="m54.1,318.4c-.64,0-1.25.12-1.82.32.28-.88.43-1.81.43-2.78,0-5.08-4.12-9.2-9.2-9.2s-9.2,4.12-9.2,9.2c0,.24.02.49.04.73-.91-.46-1.93-.73-3.01-.73-3.68,0-6.66,2.98-6.66,6.66s2.98,6.66,6.66,6.66h22.77c3,0,5.43-2.43,5.43-5.43s-2.43-5.43-5.43-5.43Z"/></g><path class="cls-12_city-1-99" d="m90.17,187.48c-.95,0-1.86.17-2.71.47.41-1.31.64-2.7.64-4.14,0-7.56-6.13-13.69-13.69-13.69s-13.69,6.13-13.69,13.69c0,.36.03.72.05,1.08-1.35-.69-2.87-1.08-4.49-1.08-5.48,0-9.92,4.44-9.92,9.92s4.44,9.92,9.92,9.92h33.89c4.47,0,8.09-3.62,8.09-8.09s-3.62-8.09-8.09-8.09Z"/><path class="cls-12_city-1-99" d="m358.8,170.71c-.95,0-1.86.17-2.71.47.41-1.31.64-2.7.64-4.14,0-7.56-6.13-13.69-13.69-13.69s-13.69,6.13-13.69,13.69c0,.36.03.72.05,1.08-1.35-.69-2.87-1.08-4.49-1.08-5.48,0-9.92,4.44-9.92,9.92s4.44,9.92,9.92,9.92h33.89c4.47,0,8.09-3.62,8.09-8.09s-3.62-8.09-8.09-8.09Z"/><g class="cls-10_city-1-99"><path class="cls-12_city-1-99" d="m163.02,84.48c-1,.02-1.96.22-2.84.55.41-1.38.62-2.85.59-4.37-.15-7.97-6.73-14.3-14.7-14.15-7.97.15-14.3,6.73-14.15,14.7,0,.38.04.76.08,1.14-1.43-.7-3.04-1.08-4.75-1.05-5.77.11-10.36,4.88-10.25,10.65s4.88,10.36,10.65,10.25l35.69-.68c4.7-.09,8.45-3.98,8.36-8.68-.09-4.7-3.98-8.45-8.68-8.36Z"/></g><g class="cls-10_city-1-99"><path class="cls-12_city-1-99" d="m424.57,101.68c-1,.02-1.96.22-2.84.55.41-1.38.62-2.85.59-4.37-.15-7.97-6.73-14.3-14.7-14.15-7.97.15-14.3,6.73-14.15,14.7,0,.38.04.76.08,1.14-1.43-.7-3.04-1.08-4.75-1.05-5.77.11-10.36,4.88-10.25,10.65s4.88,10.36,10.65,10.25l35.69-.68c4.7-.09,8.45-3.98,8.36-8.68-.09-4.7-3.98-8.45-8.68-8.36Z"/></g><g class="cls-9_city-1-99"><polygon class="cls-12_city-1-99" points="275.35 193.4 233.98 193.4 233.98 383.35 261.83 383.35 275.35 383.35 310.94 383.35 310.94 223.17 275.35 193.4"/></g><g class="cls-4_city-1-99"><polygon class="cls-12_city-1-99" points="362.87 247.92 321.5 247.92 321.5 437.87 349.34 437.87 362.87 437.87 398.45 437.87 398.45 277.69 362.87 247.92"/></g><g class="cls-10_city-1-99"><polygon class="cls-12_city-1-99" points="170.07 203.77 160.66 203.77 133.91 203.77 133.91 268.81 116.67 254.38 75.3 254.38 75.3 355.61 106.12 355.61 103.14 384.17 152.26 384.17 152.26 348.65 160.66 348.65 170.07 348.65 196.81 348.65 196.81 203.77 170.07 203.77"/></g></g><g id="buildings_city-1-99"><rect class="cls-16_city-1-99 targetColor" x="54.95" y="395.87" width="27.1" height="36.36" style="fill: rgb(79, 70, 229);"/><polygon class="cls-16_city-1-99 targetColor" points="44.29 377.68 73.61 377.68 82.05 395.87 54.95 395.87 44.29 377.68" style="fill: rgb(79, 70, 229);"/><rect class="cls-16_city-1-99 targetColor" x="34.86" y="395.87" width="20.05" height="36.36" style="fill: rgb(79, 70, 229);"/><g class="cls-6_city-1-99"><rect class="cls-14_city-1-99" x="54.95" y="395.87" width="27.1" height="36.36"/></g><g class="cls-6_city-1-99"><polygon class="cls-14_city-1-99" points="44.29 377.68 73.61 377.68 82.05 395.87 54.95 395.87 44.29 377.68"/></g><rect class="cls-1_city-1-99" x="37.88" y="403.55" width="5.34" height="6.54"/><rect class="cls-1_city-1-99" x="46.61" y="403.55" width="5.34" height="6.54"/><rect class="cls-1_city-1-99" x="41.69" y="420.27" width="7.28" height="11.97"/><polygon class="cls-16_city-1-99 targetColor" points="54.9 395.87 44.25 377.68 34.86 395.87 54.9 395.87" style="fill: rgb(79, 70, 229);"/><g class="cls-6_city-1-99"><polygon class="cls-14_city-1-99" points="73.61 377.68 44.29 377.68 54.95 395.87 54.95 432.23 82.05 432.23 82.05 395.87 73.61 377.68"/></g><rect class="cls-1_city-1-99" x="138.71" y="292.73" width="5.06" height="7.75"/><rect class="cls-1_city-1-99" x="244.84" y="271.15" width="6.4" height="9.8"/><rect class="cls-1_city-1-99" x="244.84" y="298.06" width="6.4" height="9.8"/><rect class="cls-1_city-1-99" x="244.84" y="327.35" width="6.4" height="9.8"/><rect class="cls-1_city-1-99" x="258.71" y="327.35" width="6.4" height="9.8"/><rect class="cls-1_city-1-99" x="244.84" y="356" width="6.4" height="9.8"/><rect class="cls-1_city-1-99" x="258.71" y="356" width="6.4" height="9.8"/><rect class="cls-1_city-1-99" x="325.16" y="352.58" width="6.4" height="9.8"/><rect class="cls-1_city-1-99" x="339.03" y="352.58" width="6.4" height="9.8"/><rect class="cls-1_city-1-99" x="325.16" y="381.87" width="6.4" height="9.8"/><rect class="cls-1_city-1-99" x="339.03" y="381.87" width="6.4" height="9.8"/><rect class="cls-1_city-1-99" x="325.16" y="410.52" width="6.4" height="9.8"/><rect class="cls-1_city-1-99" x="339.03" y="410.52" width="6.4" height="9.8"/><polygon class="cls-13_city-1-99" points="148.48 302.23 184.06 332.01 184.06 432.02 134.95 432.02 148.48 302.23"/><g class="cls-2_city-1-99"><polygon class="cls-14_city-1-99" points="148.48 302.23 184.06 332.01 184.06 432.02 134.95 432.02 148.48 302.23"/></g><g class="cls-8_city-1-99"><polygon class="cls-1_city-1-99" points="156.86 432.02 154.21 432.02 154.21 307.02 156.86 309.24 156.86 432.02"/></g><g class="cls-8_city-1-99"><polygon class="cls-1_city-1-99" points="166.55 432.02 163.9 432.02 163.9 315.14 166.55 317.35 166.55 432.02"/></g><polygon class="cls-1_city-1-99" points="175.9 432.02 173.24 432.02 173.24 322.93 175.9 325.17 175.9 432.02"/><rect class="cls-13_city-1-99" x="107.11" y="302.23" width="41.37" height="101.23"/><rect class="cls-16_city-1-99 targetColor" x="273.02" y="327.38" width="63.17" height="104.49" style="fill: rgb(79, 70, 229);"/><g class="cls-3_city-1-99"><rect class="cls-14_city-1-99" x="273.02" y="327.38" width="63.17" height="104.49"/></g><rect class="cls-16_city-1-99 targetColor" x="258.45" y="327.38" width="41.24" height="104.49" style="fill: rgb(79, 70, 229);"/><rect class="cls-1_city-1-99" x="264.93" y="335.31" width="4.75" height="46.31"/><rect class="cls-1_city-1-99" x="274.8" y="335.31" width="4.75" height="46.31"/><rect class="cls-1_city-1-99" x="284.66" y="335.31" width="4.75" height="46.31"/><rect class="cls-15_city-1-99" x="171.83" y="248.66" width="45.72" height="183.21"/><rect class="cls-15_city-1-99" x="205.65" y="248.66" width="45.72" height="183.21"/><g class="cls-6_city-1-99"><rect class="cls-14_city-1-99" x="205.65" y="248.66" width="45.72" height="183.21"/></g><g class="cls-8_city-1-99"><rect class="cls-1_city-1-99" x="212.89" y="363.13" width="31.22" height="5.84"/></g><g class="cls-8_city-1-99"><rect class="cls-1_city-1-99" x="212.89" y="275.41" width="31.22" height="5.84"/></g><g class="cls-10_city-1-99"><rect class="cls-1_city-1-99" x="307.25" y="338.88" width="21.69" height="4.67"/></g><g class="cls-10_city-1-99"><rect class="cls-1_city-1-99" x="307.25" y="354.44" width="21.69" height="4.67"/></g><g class="cls-10_city-1-99"><rect class="cls-1_city-1-99" x="307.25" y="370.5" width="21.69" height="4.67"/></g><g class="cls-10_city-1-99"><rect class="cls-1_city-1-99" x="307.25" y="386.55" width="21.69" height="4.67"/></g><g class="cls-8_city-1-99"><rect class="cls-1_city-1-99" x="212.89" y="304.7" width="31.22" height="5.84"/></g><g class="cls-8_city-1-99"><rect class="cls-1_city-1-99" x="212.89" y="333.35" width="31.22" height="5.84"/></g><rect class="cls-1_city-1-99" x="177.91" y="273.43" width="6.4" height="9.8"/><rect class="cls-1_city-1-99" x="191.78" y="273.43" width="6.4" height="9.8"/><rect class="cls-1_city-1-99" x="177.91" y="302.72" width="6.4" height="9.8"/><rect class="cls-1_city-1-99" x="191.78" y="302.72" width="6.4" height="9.8"/><rect class="cls-1_city-1-99" x="177.91" y="331.37" width="6.4" height="9.8"/><rect class="cls-1_city-1-99" x="191.78" y="331.37" width="6.4" height="9.8"/><rect class="cls-1_city-1-99" x="177.91" y="361.15" width="6.4" height="9.8"/><rect class="cls-1_city-1-99" x="191.78" y="361.15" width="6.4" height="9.8"/><g class="cls-8_city-1-99"><rect class="cls-1_city-1-99" x="212.89" y="390.32" width="31.22" height="5.84"/></g><rect class="cls-1_city-1-99" x="177.91" y="388.34" width="6.4" height="9.8"/><rect class="cls-1_city-1-99" x="191.78" y="388.34" width="6.4" height="9.8"/><rect class="cls-16_city-1-99 targetColor" x="67.34" y="359.6" width="37.36" height="72.42" style="fill: rgb(79, 70, 229);"/><rect class="cls-16_city-1-99 targetColor" x="94.97" y="359.6" width="37.36" height="72.42" style="fill: rgb(79, 70, 229);"/><polygon class="cls-16_city-1-99 targetColor" points="94.97 359.6 80.28 334.52 67.34 359.6 94.97 359.6" style="fill: rgb(79, 70, 229);"/><polygon class="cls-16_city-1-99 targetColor" points="80.28 334.52 120.69 334.52 132.33 359.6 94.97 359.6 80.28 334.52" style="fill: rgb(79, 70, 229);"/><g class="cls-6_city-1-99"><polygon class="cls-14_city-1-99" points="120.69 334.52 80.28 334.52 94.97 359.6 94.97 432.02 132.33 432.02 132.33 359.6 120.69 334.52"/></g><rect class="cls-1_city-1-99" x="72.31" y="371.86" width="7.36" height="9.01"/><rect class="cls-1_city-1-99" x="82.56" y="371.86" width="7.36" height="9.01"/><rect class="cls-1_city-1-99" x="72.31" y="393.82" width="7.36" height="9.01"/><rect class="cls-1_city-1-99" x="82.56" y="393.82" width="7.36" height="9.01"/><rect class="cls-1_city-1-99" x="75.99" y="414.59" width="10.03" height="16.5"/><rect class="cls-15_city-1-99" x="316.53" y="369.21" width="33" height="63.99"/><polygon class="cls-15_city-1-99" points="340.94 369.21 327.96 347.06 316.53 369.21 340.94 369.21"/><polygon class="cls-15_city-1-99" points="363.66 347.06 327.96 347.06 340.94 369.21 340.94 433.2 373.95 433.2 373.95 369.21 363.66 347.06"/><g class="cls-3_city-1-99"><polygon class="cls-14_city-1-99" points="363.66 347.06 327.96 347.06 340.94 369.21 340.94 433.2 373.95 433.2 373.95 369.21 363.66 347.06"/></g><rect class="cls-1_city-1-99" x="320.91" y="375.26" width="6.51" height="7.96"/><rect class="cls-1_city-1-99" x="329.97" y="375.26" width="6.51" height="7.96"/><rect class="cls-1_city-1-99" x="320.91" y="388.67" width="6.51" height="7.96"/><rect class="cls-1_city-1-99" x="329.97" y="388.67" width="6.51" height="7.96"/><rect class="cls-1_city-1-99" x="320.91" y="402.38" width="6.51" height="7.96"/><rect class="cls-1_city-1-99" x="329.97" y="402.38" width="6.51" height="7.96"/><rect class="cls-1_city-1-99" x="324.17" y="417.8" width="8.86" height="14.57"/><rect class="cls-1_city-1-99" x="183.42" y="414.59" width="10.03" height="16.5"/><rect class="cls-13_city-1-99" x="353.94" y="290.77" width="45.72" height="141.1"/><rect class="cls-13_city-1-99" x="387.76" y="290.77" width="45.72" height="141.1"/><g class="cls-2_city-1-99"><rect class="cls-14_city-1-99" x="387.76" y="290.77" width="45.72" height="141.1"/></g><g class="cls-10_city-1-99"><rect class="cls-1_city-1-99" x="395" y="363.13" width="31.22" height="5.84"/></g><g class="cls-10_city-1-99"><rect class="cls-1_city-1-99" x="395" y="304.7" width="31.22" height="5.84"/></g><g class="cls-10_city-1-99"><rect class="cls-1_city-1-99" x="395" y="333.35" width="31.22" height="5.84"/></g><rect class="cls-1_city-1-99" x="360.01" y="302.72" width="6.4" height="9.8"/><rect class="cls-1_city-1-99" x="373.88" y="302.72" width="6.4" height="9.8"/><rect class="cls-1_city-1-99" x="360.01" y="331.37" width="6.4" height="9.8"/><rect class="cls-1_city-1-99" x="373.88" y="331.37" width="6.4" height="9.8"/><rect class="cls-1_city-1-99" x="360.01" y="361.15" width="6.4" height="9.8"/><rect class="cls-1_city-1-99" x="373.88" y="361.15" width="6.4" height="9.8"/><rect class="cls-1_city-1-99" x="395" y="390.32" width="31.22" height="5.84"/><rect class="cls-1_city-1-99" x="360.01" y="388.34" width="6.4" height="9.8"/><rect class="cls-1_city-1-99" x="373.88" y="388.34" width="6.4" height="9.8"/><rect class="cls-1_city-1-99" x="365.52" y="414.59" width="10.03" height="16.5"/><rect class="cls-16_city-1-99 targetColor" x="219.81" y="380.38" width="38.64" height="51.85" style="fill: rgb(79, 70, 229);"/><polygon class="cls-16_city-1-99 targetColor" points="248.39 380.38 233.2 354.44 219.81 380.38 248.39 380.38" style="fill: rgb(79, 70, 229);"/><polygon class="cls-16_city-1-99 targetColor" points="275 354.44 233.2 354.44 248.39 380.38 248.39 432.23 287.04 432.23 287.04 380.38 275 354.44" style="fill: rgb(79, 70, 229);"/><g class="cls-6_city-1-99"><polygon class="cls-14_city-1-99" points="275 354.44 233.2 354.44 248.39 380.38 248.39 432.23 287.04 432.23 287.04 380.38 275 354.44"/></g><polygon class="cls-16_city-1-99 targetColor" points="286.53 392.73 265.3 392.73 273.02 405.9 273.02 432.23 292.65 432.23 292.65 405.9 286.53 392.73" style="fill: rgb(79, 70, 229);"/><g class="cls-6_city-1-99"><polygon class="cls-14_city-1-99" points="286.53 392.73 265.3 392.73 273.02 405.9 273.02 432.23 292.65 432.23 292.65 405.9 286.53 392.73"/></g><g class="cls-10_city-1-99"><rect class="cls-1_city-1-99" x="278.98" y="412.48" width="8.02" height="9.79"/></g><polygon class="cls-16_city-1-99 targetColor" points="265.3 392.73 265.3 432.23 273.02 432.23 273.02 405.9 265.3 392.73" style="fill: rgb(79, 70, 229);"/><g class="cls-10_city-1-99"><rect class="cls-1_city-1-99" x="253.92" y="390.36" width="8.02" height="9.79"/></g><g class="cls-10_city-1-99"><rect class="cls-1_city-1-99" x="253.92" y="409.74" width="8.02" height="9.79"/></g><rect class="cls-1_city-1-99" x="223.48" y="391.34" width="7.62" height="9.33"/><rect class="cls-1_city-1-99" x="235.94" y="391.34" width="7.62" height="9.33"/><rect class="cls-1_city-1-99" x="228.91" y="415.17" width="10.37" height="17.06"/><polygon class="cls-15_city-1-99" points="135.05 395.87 124.39 377.68 115 395.87 135.05 395.87"/><rect class="cls-15_city-1-99" x="115" y="395.87" width="20.05" height="36.36"/><polygon class="cls-15_city-1-99" points="153.71 377.68 124.39 377.68 135.05 395.87 135.05 432.23 162.15 432.23 162.15 395.87 153.71 377.68"/><g class="cls-6_city-1-99"><polygon class="cls-14_city-1-99" points="153.71 377.68 124.39 377.68 135.05 395.87 135.05 432.23 162.15 432.23 162.15 395.87 153.71 377.68"/></g><rect class="cls-1_city-1-99" x="117.58" y="403.55" width="5.34" height="6.54"/><rect class="cls-1_city-1-99" x="126.32" y="403.55" width="5.34" height="6.54"/><rect class="cls-1_city-1-99" x="121.39" y="420.27" width="7.28" height="11.97"/><circle class="cls-1_city-1-99" cx="124.68" cy="390.58" r="3.29"/><polygon class="cls-16_city-1-99 targetColor" points="373.95 395.87 363.29 377.68 353.9 395.87 373.95 395.87" style="fill: rgb(79, 70, 229);"/><rect class="cls-16_city-1-99 targetColor" x="353.9" y="395.87" width="20.05" height="36.36" style="fill: rgb(79, 70, 229);"/><polygon class="cls-16_city-1-99 targetColor" points="392.6 377.68 363.29 377.68 373.95 395.87 373.95 432.23 401.05 432.23 401.05 395.87 392.6 377.68" style="fill: rgb(79, 70, 229);"/><g class="cls-3_city-1-99"><polygon class="cls-14_city-1-99" points="392.6 377.68 363.29 377.68 373.95 395.87 373.95 432.23 401.05 432.23 401.05 395.87 392.6 377.68"/></g><rect class="cls-1_city-1-99" x="356.48" y="403.55" width="5.34" height="6.54"/><rect class="cls-1_city-1-99" x="365.21" y="403.55" width="5.34" height="6.54"/><rect class="cls-1_city-1-99" x="360.28" y="420.27" width="7.28" height="11.97"/><rect class="cls-13_city-1-99" x="21.08" y="431.87" width="457.84" height="13.58" rx="3.78" ry="3.78"/><rect class="cls-15_city-1-99" x="391.61" y="380.38" width="38.64" height="51.85"/><polygon class="cls-15_city-1-99" points="420.2 380.38 405 354.44 391.61 380.38 420.2 380.38"/><polygon class="cls-15_city-1-99" points="446.8 354.44 405 354.44 420.2 380.38 420.2 432.23 458.84 432.23 458.84 380.38 446.8 354.44"/><polygon class="cls-15_city-1-99" points="458.33 392.73 437.11 392.73 444.82 405.9 444.82 432.23 464.45 432.23 464.45 405.9 458.33 392.73"/><g class="cls-3_city-1-99"><polygon class="cls-14_city-1-99" points="446.8 354.44 405 354.44 420.2 380.38 420.2 432.23 458.84 432.23 458.84 380.38 446.8 354.44"/></g><polygon class="cls-15_city-1-99" points="458.33 392.73 437.11 392.73 444.82 405.9 444.82 432.23 464.45 432.23 464.45 405.9 458.33 392.73"/><g class="cls-3_city-1-99"><polygon class="cls-14_city-1-99" points="458.33 392.73 437.11 392.73 444.82 405.9 444.82 432.23 464.45 432.23 464.45 405.9 458.33 392.73"/></g><g class="cls-10_city-1-99"><rect class="cls-1_city-1-99" x="450.78" y="412.48" width="8.02" height="9.79"/></g><polygon class="cls-15_city-1-99" points="437.11 392.73 437.11 432.23 444.82 432.23 444.82 405.9 437.11 392.73"/><g class="cls-10_city-1-99"><rect class="cls-1_city-1-99" x="425.73" y="390.36" width="8.02" height="9.79"/></g><g class="cls-10_city-1-99"><rect class="cls-1_city-1-99" x="425.73" y="409.74" width="8.02" height="9.79"/></g><rect class="cls-1_city-1-99" x="395.29" y="391.34" width="7.62" height="9.33"/><rect class="cls-1_city-1-99" x="407.74" y="391.34" width="7.62" height="9.33"/><rect class="cls-1_city-1-99" x="400.72" y="415.17" width="10.37" height="17.06"/><circle class="cls-1_city-1-99" cx="405.41" cy="372.83" r="4.69"/></g></svg>